<?xml version="1.0" encoding="UTF-8" standalone="no"?>
<!DOCTYPE svg PUBLIC "-//W3C//DTD SVG 1.1//EN" "http://www.w3.org/Graphics/SVG/1.1/DTD/svg11.dtd">
<svg xmlns="http://www.w3.org/2000/svg" version="1.1" viewBox="0.00 0.00 500.00 500.00">
<g stroke-width="2.00" fill="none" stroke-linecap="butt">
<path stroke="#f2524a" vector-effect="non-scaling-stroke" d="
  M 283.91 4.31
  L 275.31 11.60
  Q 273.72 12.95 275.78 13.27
  Q 282.00 14.23 288.17 16.35
  Q 296.43 19.18 300.76 23.76"
/>
<path stroke="#ed255a" vector-effect="non-scaling-stroke" d="
  M 300.76 23.76
  C 292.42 33.82 274.15 34.51 261.94 34.23
  Q 228.47 33.46 195.12 35.87
  C 178.29 37.09 132.90 41.94 136.83 69.19
  C 139.92 90.63 158.21 110.37 175.68 122.34
  Q 189.37 131.71 199.53 137.98
  C 219.04 150.02 240.77 164.26 235.41 191.28"
/>
<path stroke="#f46145" vector-effect="non-scaling-stroke" d="
  M 235.41 191.28
  L 235.22 190.55
  Q 235.13 190.18 234.75 190.22
  L 233.74 190.33
  Q 233.38 190.37 233.04 190.26
  Q 231.69 189.79 230.46 190.55
  Q 230.34 190.63 230.27 190.75
  L 230.06 191.09
  Q 229.77 191.58 229.80 191.01
  Q 229.86 189.68 229.39 188.75"
/>
<path stroke="#f35b47" vector-effect="non-scaling-stroke" d="
  M 229.39 188.75
  C 230.89 169.24 213.78 157.69 199.03 149.21
  C 171.72 133.51 145.37 119.24 125.54 93.83
  A 0.30 0.30 0.0 0 0 125.00 94.02
  L 125.00 94.48
  Q 125.00 94.92 124.56 94.92
  L 111.97 94.90"
/>
<path stroke="#ed255a" vector-effect="non-scaling-stroke" d="
  M 111.97 94.90
  Q 108.97 89.74 107.64 83.36
  Q 106.90 79.83 107.69 76.11
  C 117.11 31.56 175.53 15.52 213.88 12.01
  A 1.06 1.03 -67.6 0 0 214.48 11.75
  L 223.31 3.72
  Q 223.73 3.34 223.54 2.81
  Q 223.17 1.79 224.06 1.72
  Q 224.59 1.68 224.54 1.16
  Q 224.51 0.87 224.24 0.82
  Q 222.70 0.53 221.28 0.42"
/>
<path stroke="#f1484d" vector-effect="non-scaling-stroke" d="
  M 111.97 94.90
  C 124.90 116.24 147.65 132.96 168.34 145.49
  C 179.27 152.11 189.80 160.38 197.73 170.43"
/>
<path stroke="#f03f51" vector-effect="non-scaling-stroke" d="
  M 197.73 170.43
  L 196.76 170.51
  Q 196.29 170.55 196.27 171.01
  Q 196.25 171.58 195.96 171.85"
/>
<path stroke="#ed255a" vector-effect="non-scaling-stroke" d="
  M 195.96 171.85
  Q 190.34 162.78 180.15 156.87
  Q 154.40 141.90 144.44 136.50"
/>
<path stroke="#780c54" vector-effect="non-scaling-stroke" d="
  M 144.44 136.50
  C 130.16 125.86 116.99 111.60 109.49 95.04
  Q 103.26 81.30 106.69 66.10"
/>
<path stroke="#f14a4d" vector-effect="non-scaling-stroke" d="
  M 321.07 23.68
  L 323.27 30.70"
/>
<path stroke="#f14a4d" vector-effect="non-scaling-stroke" d="
  M 289.45 49.12
  L 284.03 49.93"
/>
<path stroke="#f03f51" vector-effect="non-scaling-stroke" d="
  M 225.52 47.50
  Q 225.20 46.90 225.25 46.33
  Q 225.30 45.75 225.88 45.80
  Q 250.40 47.58 274.48 42.97
  C 281.73 41.58 303.98 34.09 300.76 23.76"
/>
<path stroke="#f1444f" vector-effect="non-scaling-stroke" d="
  M 389.74 264.99
  Q 389.19 264.62 389.80 263.53
  Q 390.06 263.06 389.71 262.66
  L 387.52 260.17"
/>
<path stroke="#f1444f" vector-effect="non-scaling-stroke" d="
  M 347.98 194.99
  L 348.13 194.75
  Q 348.29 194.50 348.00 194.50
  L 347.56 194.50
  A 0.27 0.27 0.0 0 1 347.49 193.97
  L 350.67 193.16
  Q 351.63 192.92 350.74 192.48
  L 344.07 189.22
  A 0.23 0.22 -76.5 0 0 343.75 189.42
  Q 343.75 189.56 343.75 189.71
  Q 343.78 190.20 343.36 189.95
  L 343.07 189.78
  A 0.20 0.20 0.0 0 0 342.77 189.92
  L 342.62 190.77"
/>
<path stroke="#ec1d5c" vector-effect="non-scaling-stroke" d="
  M 237.53 148.67
  L 230.30 145.47"
/>
<path stroke="#b71f44" vector-effect="non-scaling-stroke" d="
  M 251.85 206.31
  L 248.73 210.67"
/>
<path stroke="#ed255a" vector-effect="non-scaling-stroke" d="
  M 214.44 310.44
  Q 213.70 310.76 213.11 310.67
  Q 212.75 310.61 212.75 310.25
  Q 212.75 310.08 212.77 309.89
  Q 212.82 309.34 212.33 309.60
  C 210.05 310.77 200.28 310.00 195.99 310.20"
/>
<path stroke="#f24e4b" vector-effect="non-scaling-stroke" d="
  M 195.99 310.20
  C 188.98 282.66 201.83 255.53 216.03 232.63
  C 224.06 219.68 232.32 206.39 235.41 191.28"
/>
<path stroke="#7a1f4e" vector-effect="non-scaling-stroke" d="
  M 144.44 136.50
  Q 154.15 145.11 164.41 151.07
  Q 165.54 151.72 164.28 151.40
  Q 162.29 150.89 160.33 149.84"
/>
<path stroke="#791750" vector-effect="non-scaling-stroke" d="
  M 160.33 149.84
  Q 159.07 149.02 154.50 146.76
  C 134.17 136.72 114.92 122.90 99.73 105.35"
/>
<path stroke="#f88438" vector-effect="non-scaling-stroke" d="
  M 229.39 188.75
  Q 228.31 198.50 224.10 207.18"
/>
<path stroke="#fa9831" vector-effect="non-scaling-stroke" d="
  M 224.10 207.18
  Q 223.55 207.18 222.99 208.19
  Q 222.74 208.65 222.22 208.65
  L 207.35 208.69"
/>
<path stroke="#f6753e" vector-effect="non-scaling-stroke" d="
  M 207.35 208.69
  Q 210.93 187.81 197.73 170.43"
/>
<path stroke="#ee3056" vector-effect="non-scaling-stroke" d="
  M 160.33 149.84
  Q 159.47 150.36 158.83 150.28"
/>
<path stroke="#ef3753" vector-effect="non-scaling-stroke" d="
  M 158.83 150.28
  C 136.07 142.76 115.41 133.35 97.44 117.15
  Q 96.95 116.70 96.37 117.04
  L 96.06 117.23
  A 0.21 0.20 -15.5 0 1 95.75 117.06
  Q 95.75 116.89 95.75 116.72
  A 0.16 0.16 0.0 0 0 95.46 116.63
  Q 94.82 117.51 94.17 117.71"
/>
<path stroke="#f03f51" vector-effect="non-scaling-stroke" d="
  M 158.83 150.28
  Q 160.91 150.21 160.73 152.49
  Q 160.64 153.57 158.73 156.71
  Q 137.23 191.97 116.06 227.46
  Q 115.76 227.96 115.23 227.73
  Q 113.23 226.87 111.19 227.66
  Q 110.72 227.84 110.36 227.48
  Q 99.99 217.03 89.39 206.87
  Q 89.25 206.73 88.68 206.70"
/>
<path stroke="#f2524a" vector-effect="non-scaling-stroke" d="
  M 195.96 171.85
  C 203.65 187.38 197.87 205.95 189.87 220.74"
/>
<path stroke="#f24c4c" vector-effect="non-scaling-stroke" d="
  M 189.87 220.74
  Q 189.08 220.84 188.66 222.08
  Q 188.51 222.51 188.07 222.39
  L 186.28 221.93
  Q 184.06 221.36 185.19 219.37
  C 200.82 191.93 196.49 169.22 168.09 153.54
  A 1.29 1.29 0.0 0 0 166.18 154.74
  Q 167.28 174.33 166.84 193.93
  A 0.92 0.81 -68.5 0 1 165.41 194.66
  Q 165.38 194.64 165.21 194.26
  Q 165.12 194.07 165.11 193.85
  Q 164.51 174.15 163.95 154.34
  A 0.50 0.49 19.3 0 0 163.76 153.95
  Q 163.11 153.43 162.58 154.33
  Q 140.20 191.89 117.72 229.40
  Q 117.43 229.89 117.73 230.37
  Q 118.89 232.18 118.14 234.16
  Q 117.96 234.64 118.37 234.94
  L 151.41 259.32
  A 0.73 0.73 0.0 0 1 150.56 260.50
  L 116.93 237.15
  A 0.91 0.90 -43.6 0 0 115.93 237.13
  Q 111.80 239.69 108.71 236.04
  Q 108.32 235.58 107.75 235.77
  Q 86.64 242.81 65.70 250.07
  Q 64.19 250.59 63.97 249.12"
/>
<path stroke="#f24c4c" vector-effect="non-scaling-stroke" d="
  M 64.51 248.21
  L 105.62 234.21
  A 3.92 3.91 57.8 0 0 107.09 227.71
  L 89.18 210.16
  Q 88.82 209.80 88.33 209.66
  Q 87.96 209.56 87.67 209.23"
/>
<path stroke="#f56643" vector-effect="non-scaling-stroke" d="
  M 189.87 220.74
  C 178.35 244.21 162.93 265.56 152.15 289.41"
/>
<path stroke="#f7753e" vector-effect="non-scaling-stroke" d="
  M 152.15 289.41
  C 145.10 304.38 140.45 321.62 146.18 337.98"
/>
<path stroke="#7c3347" vector-effect="non-scaling-stroke" d="
  M 146.18 337.98
  C 147.20 349.47 154.59 361.73 162.94 369.24
  Q 163.13 369.40 163.03 369.63
  Q 162.96 369.79 163.01 370.01"
/>
<path stroke="#f98f35" vector-effect="non-scaling-stroke" d="
  M 207.35 208.69
  C 204.02 225.79 195.33 240.87 185.98 255.20
  Q 174.43 272.93 163.78 290.90"
/>
<path stroke="#f77b3c" vector-effect="non-scaling-stroke" d="
  M 163.78 290.90
  L 153.66 290.01
  Q 153.23 289.97 153.25 289.55
  Q 153.25 289.40 153.26 289.26
  Q 153.31 288.66 152.91 289.11
  Q 152.48 289.59 152.15 289.41"
/>
<path stroke="#f46145" vector-effect="non-scaling-stroke" d="
  M 195.99 310.20
  C 207.22 348.87 249.72 370.43 278.54 394.66
  Q 278.90 394.96 279.36 394.92
  Q 283.51 394.58 284.77 391.99"
/>
<path stroke="#f7753e" vector-effect="non-scaling-stroke" d="
  M 291.93 397.51
  Q 293.54 399.46 296.00 400.72"
/>
<path stroke="#f7753e" vector-effect="non-scaling-stroke" d="
  M 355.21 465.80
  Q 353.14 466.10 355.70 468.80
  Q 356.25 469.37 355.46 469.36
  L 351.49 469.27
  Q 350.96 469.26 351.37 469.59
  Q 352.24 470.31 351.49 470.51"
/>
<path stroke="#fb9e2f" vector-effect="non-scaling-stroke" d="
  M 216.56 485.54
  Q 215.91 483.93 216.31 482.74
  Q 216.45 482.30 215.99 482.26
  L 215.31 482.21
  A 0.02 0.02 0.0 0 1 215.30 482.18
  L 215.50 481.76
  A 0.16 0.15 18.2 0 0 215.38 481.54
  L 214.47 481.38"
/>
<path stroke="#fb9e2f" vector-effect="non-scaling-stroke" d="
  M 224.50 462.72
  L 219.32 460.59
  A 0.68 0.68 0.0 0 1 219.20 459.39
  L 227.09 454.13
  Q 227.50 453.85 227.59 453.37
  L 228.01 451.10
  A 1.31 1.31 0.0 0 1 228.52 450.30
  Q 243.49 439.41 258.34 428.38
  Q 266.99 421.94 272.22 413.98
  C 279.25 403.27 266.43 393.99 258.46 390.01
  C 230.88 376.24 210.73 366.39 189.54 349.98
  C 177.60 340.73 165.74 326.51 167.47 310.48
  C 169.27 293.72 181.01 275.38 190.16 261.67
  Q 207.18 236.18 218.47 218.21
  Q 220.76 214.56 224.10 207.18"
/>
<path stroke="#f24c4c" vector-effect="non-scaling-stroke" d="
  M 259.59 371.30
  L 254.21 366.43"
/>
<path stroke="#f24c4c" vector-effect="non-scaling-stroke" d="
  M 218.78 321.90
  L 216.68 316.86"
/>
<path stroke="#bc4637" vector-effect="non-scaling-stroke" d="
  M 275.47 230.23
  Q 276.50 227.78 278.78 226.38"
/>
<path stroke="#fb9e2f" vector-effect="non-scaling-stroke" d="
  M 191.50 470.79
  Q 195.83 469.36 199.07 466.08
  C 212.81 452.17 227.87 441.04 238.34 422.50
  Q 238.60 422.03 239.14 422.10
  C 241.87 422.44 244.68 422.74 247.29 423.60
  Q 249.01 424.18 250.73 422.50
  C 255.00 418.30 264.79 409.27 258.76 403.67
  C 247.55 393.28 226.41 387.37 213.76 383.59"
/>
<path stroke="#815b38" vector-effect="non-scaling-stroke" d="
  M 192.69 370.57
  C 187.73 371.99 173.33 364.84 169.21 362.33"
/>
<path stroke="#fb9e2f" vector-effect="non-scaling-stroke" d="
  M 169.21 362.33
  Q 169.95 361.15 168.12 360.33
  Q 167.67 360.13 167.65 359.65
  C 167.57 357.53 165.98 356.69 165.16 355.38
  C 163.93 353.40 162.18 351.51 161.12 349.71
  C 148.99 329.17 153.70 311.16 163.78 290.90"
/>
<path stroke="#7f483f" vector-effect="non-scaling-stroke" d="
  M 169.21 362.33
  Q 153.91 353.79 146.18 337.98"
/>
</g>
<path fill="#ef3853" d="
  M 225.32 0.00
  L 250.30 0.00
  Q 267.09 1.05 283.91 4.31
  L 275.31 11.60
  Q 273.72 12.95 275.78 13.27
  Q 282.00 14.23 288.17 16.35
  Q 296.43 19.18 300.76 23.76
  C 292.42 33.82 274.15 34.51 261.94 34.23
  Q 228.47 33.46 195.12 35.87
  C 178.29 37.09 132.90 41.94 136.83 69.19
  C 139.92 90.63 158.21 110.37 175.68 122.34
  Q 189.37 131.71 199.53 137.98
  C 219.04 150.02 240.77 164.26 235.41 191.28
  L 235.22 190.55
  Q 235.13 190.18 234.75 190.22
  L 233.74 190.33
  Q 233.38 190.37 233.04 190.26
  Q 231.69 189.79 230.46 190.55
  Q 230.34 190.63 230.27 190.75
  L 230.06 191.09
  Q 229.77 191.58 229.80 191.01
  Q 229.86 189.68 229.39 188.75
  C 230.89 169.24 213.78 157.69 199.03 149.21
  C 171.72 133.51 145.37 119.24 125.54 93.83
  A 0.30 0.30 0.0 0 0 125.00 94.02
  L 125.00 94.48
  Q 125.00 94.92 124.56 94.92
  L 111.97 94.90
  Q 108.97 89.74 107.64 83.36
  Q 106.90 79.83 107.69 76.11
  C 117.11 31.56 175.53 15.52 213.88 12.01
  A 1.06 1.03 -67.6 0 0 214.48 11.75
  L 223.31 3.72
  Q 223.73 3.34 223.54 2.81
  Q 223.17 1.79 224.06 1.72
  Q 224.59 1.68 224.54 1.16
  Q 224.51 0.87 224.24 0.82
  Q 222.70 0.53 221.28 0.42
  L 225.32 0.00
  Z"
/>
<path fill="#eb1260" d="
  M 221.28 0.42
  Q 222.70 0.53 224.24 0.82
  Q 224.51 0.87 224.54 1.16
  Q 224.59 1.68 224.06 1.72
  Q 223.17 1.79 223.54 2.81
  Q 223.73 3.34 223.31 3.72
  L 214.48 11.75
  A 1.06 1.03 -67.6 0 1 213.88 12.01
  C 175.53 15.52 117.11 31.56 107.69 76.11
  Q 106.90 79.83 107.64 83.36
  Q 108.97 89.74 111.97 94.90
  C 124.90 116.24 147.65 132.96 168.34 145.49
  C 179.27 152.11 189.80 160.38 197.73 170.43
  L 196.76 170.51
  Q 196.29 170.55 196.27 171.01
  Q 196.25 171.58 195.96 171.85
  Q 190.34 162.78 180.15 156.87
  Q 154.40 141.90 144.44 136.50
  C 130.16 125.86 116.99 111.60 109.49 95.04
  Q 103.26 81.30 106.69 66.10
  Q 107.60 63.81 108.46 61.21
  C 122.53 18.51 182.48 2.98 221.28 0.42
  Z"
/>
<path fill="#f56c41" d="
  M 283.91 4.31
  C 296.94 6.94 311.93 13.55 321.07 23.68
  L 323.27 30.70
  C 321.80 44.04 299.95 48.24 289.45 49.12
  L 284.03 49.93
  C 278.13 49.98 271.98 50.80 266.65 50.69
  Q 245.97 50.26 225.52 47.50
  Q 225.20 46.90 225.25 46.33
  Q 225.30 45.75 225.88 45.80
  Q 250.40 47.58 274.48 42.97
  C 281.73 41.58 303.98 34.09 300.76 23.76
  Q 296.43 19.18 288.17 16.35
  Q 282.00 14.23 275.78 13.27
  Q 273.72 12.95 275.31 11.60
  L 283.91 4.31
  Z"
/>
<path fill="#ed2858" d="
  M 321.07 23.68
  L 345.51 36.43
  A 1.37 1.35 -51.7 0 0 347.05 36.24
  C 355.69 28.57 366.74 37.44 363.84 48.14
  Q 363.71 48.62 364.08 48.96
  L 407.04 88.41
  Q 407.43 88.77 407.89 88.50
  C 419.44 81.61 430.72 99.35 418.39 106.84
  A 0.83 0.82 -21.4 0 0 418.01 107.70
  L 430.64 170.94
  Q 430.75 171.47 431.29 171.55
  C 444.69 173.57 443.72 192.16 429.62 192.78
  Q 429.08 192.81 428.89 193.31
  L 412.14 238.65
  Q 411.96 239.12 412.28 239.51
  C 417.70 246.29 415.52 255.89 406.33 257.55
  C 404.02 257.97 402.11 257.08 399.87 256.48
  Q 399.36 256.34 398.97 256.69
  L 389.74 264.99
  Q 389.19 264.62 389.80 263.53
  Q 390.06 263.06 389.71 262.66
  L 387.52 260.17
  L 395.53 253.06
  A 0.68 0.67 -32.9 0 0 395.70 252.28
  C 391.96 243.51 397.69 235.95 406.80 236.57
  Q 407.37 236.60 407.56 236.08
  L 424.03 191.54
  Q 424.22 191.02 423.80 190.66
  Q 421.27 188.48 420.14 185.34
  Q 419.93 184.75 419.30 184.75
  L 362.75 184.75
  Q 362.20 184.75 362.12 185.30
  C 361.18 191.87 355.00 197.94 347.98 194.99
  L 348.13 194.75
  Q 348.29 194.50 348.00 194.50
  L 347.56 194.50
  A 0.27 0.27 0.0 0 1 347.49 193.97
  L 350.67 193.16
  Q 351.63 192.92 350.74 192.48
  L 344.07 189.22
  A 0.23 0.22 -76.5 0 0 343.75 189.42
  Q 343.75 189.56 343.75 189.71
  Q 343.78 190.20 343.36 189.95
  L 343.07 189.78
  A 0.20 0.20 0.0 0 0 342.77 189.92
  L 342.62 190.77
  Q 338.79 183.82 343.71 177.68
  Q 344.06 177.24 343.78 176.76
  L 316.46 129.77
  A 0.91 0.90 -21.0 0 0 315.48 129.34
  Q 308.69 130.86 304.72 125.31
  A 0.55 0.54 62.4 0 0 304.10 125.11
  L 237.53 148.67
  L 230.30 145.47
  L 302.19 120.13
  A 0.77 0.76 80.1 0 0 302.70 119.39
  Q 302.60 114.05 306.68 110.75
  A 0.79 0.79 0.0 0 0 306.92 109.86
  L 284.03 49.93
  L 289.45 49.12
  L 311.75 108.04
  A 0.72 0.72 0.0 0 0 312.48 108.51
  Q 315.27 108.31 317.79 109.50
  A 0.68 0.68 0.0 0 0 318.69 109.19
  L 347.17 53.15
  A 1.13 1.12 34.9 0 0 346.93 51.81
  Q 342.37 47.64 343.51 41.47
  A 0.40 0.40 0.0 0 0 343.31 41.05
  L 323.27 30.70
  L 321.07 23.68
  Z
  M 352.23 54.91
  Q 337.50 83.63 323.04 111.89
  Q 322.38 113.19 322.58 114.05
  Q 322.80 115.03 323.78 114.82
  L 401.74 97.67
  Q 402.17 97.57 402.30 97.14
  L 403.60 92.77
  Q 403.71 92.40 403.42 92.14
  L 360.75 53.18
  A 0.84 0.83 -40.6 0 0 359.72 53.11
  Q 356.63 55.19 352.95 54.56
  Q 352.46 54.47 352.23 54.91
  Z
  M 323.59 120.76
  Q 323.04 123.85 320.94 126.18
  Q 320.55 126.62 320.84 127.13
  L 348.15 174.10
  Q 348.39 174.52 348.87 174.46
  Q 356.05 173.56 360.31 179.14
  Q 360.59 179.50 361.05 179.50
  L 419.30 179.50
  Q 419.90 179.50 420.08 178.93
  Q 421.37 174.88 425.13 172.91
  A 0.84 0.84 0.0 0 0 425.56 172.01
  L 412.86 108.85
  A 0.69 0.68 87.1 0 0 412.26 108.30
  Q 406.62 107.70 403.90 102.85
  A 0.59 0.58 -20.7 0 0 403.27 102.57
  L 324.19 120.14
  A 0.78 0.77 -1.2 0 0 323.59 120.76
  Z"
/>
<path fill="#eb1260" d="
  M 300.76 23.76
  C 303.98 34.09 281.73 41.58 274.48 42.97
  Q 250.40 47.58 225.88 45.80
  Q 225.30 45.75 225.25 46.33
  Q 225.20 46.90 225.52 47.50
  C 211.11 45.38 198.41 42.88 183.96 44.29
  C 168.94 45.77 152.48 53.46 151.60 70.21
  C 149.86 103.46 204.74 134.06 230.30 145.47
  L 237.53 148.67
  C 246.30 152.60 257.11 156.70 263.05 163.98
  C 274.01 177.38 259.54 195.49 251.85 206.31
  L 248.73 210.67
  C 225.88 238.39 203.07 272.53 214.44 310.44
  Q 213.70 310.76 213.11 310.67
  Q 212.75 310.61 212.75 310.25
  Q 212.75 310.08 212.77 309.89
  Q 212.82 309.34 212.33 309.60
  C 210.05 310.77 200.28 310.00 195.99 310.20
  C 188.98 282.66 201.83 255.53 216.03 232.63
  C 224.06 219.68 232.32 206.39 235.41 191.28
  C 240.77 164.26 219.04 150.02 199.53 137.98
  Q 189.37 131.71 175.68 122.34
  C 158.21 110.37 139.92 90.63 136.83 69.19
  C 132.90 41.94 178.29 37.09 195.12 35.87
  Q 228.47 33.46 261.94 34.23
  C 274.15 34.51 292.42 33.82 300.76 23.76
  Z"
/>
<path fill="#040548" d="
  M 106.69 66.10
  Q 103.26 81.30 109.49 95.04
  C 116.99 111.60 130.16 125.86 144.44 136.50
  Q 154.15 145.11 164.41 151.07
  Q 165.54 151.72 164.28 151.40
  Q 162.29 150.89 160.33 149.84
  Q 159.07 149.02 154.50 146.76
  C 134.17 136.72 114.92 122.90 99.73 105.35
  L 95.28 98.70
  A 1.56 1.46 -61.5 0 1 95.04 97.78
  Q 95.57 90.28 96.38 82.84
  C 96.85 78.50 103.93 70.06 106.69 66.10
  Z"
/>
<path fill="#f77e3a" d="
  M 229.39 188.75
  Q 228.31 198.50 224.10 207.18
  Q 223.55 207.18 222.99 208.19
  Q 222.74 208.65 222.22 208.65
  L 207.35 208.69
  Q 210.93 187.81 197.73 170.43
  C 189.80 160.38 179.27 152.11 168.34 145.49
  C 147.65 132.96 124.90 116.24 111.97 94.90
  L 124.56 94.92
  Q 125.00 94.92 125.00 94.48
  L 125.00 94.02
  A 0.30 0.30 0.0 0 1 125.54 93.83
  C 145.37 119.24 171.72 133.51 199.03 149.21
  C 213.78 157.69 230.89 169.24 229.39 188.75
  Z"
/>
<path fill="#ed2858" d="
  M 99.73 105.35
  C 114.92 122.90 134.17 136.72 154.50 146.76
  Q 159.07 149.02 160.33 149.84
  Q 159.47 150.36 158.83 150.28
  C 136.07 142.76 115.41 133.35 97.44 117.15
  Q 96.95 116.70 96.37 117.04
  L 96.06 117.23
  A 0.21 0.20 -15.5 0 1 95.75 117.06
  Q 95.75 116.89 95.75 116.72
  A 0.16 0.16 0.0 0 0 95.46 116.63
  Q 94.82 117.51 94.17 117.71
  L 99.73 105.35
  Z"
/>
<path fill="#f1454e" d="
  M 158.83 150.28
  Q 160.91 150.21 160.73 152.49
  Q 160.64 153.57 158.73 156.71
  Q 137.23 191.97 116.06 227.46
  Q 115.76 227.96 115.23 227.73
  Q 113.23 226.87 111.19 227.66
  Q 110.72 227.84 110.36 227.48
  Q 99.99 217.03 89.39 206.87
  Q 89.25 206.73 88.68 206.70
  C 91.86 199.53 95.49 189.16 89.96 181.82
  C 84.18 174.15 80.66 168.97 81.59 158.74
  C 82.87 144.67 88.36 130.48 94.17 117.71
  Q 94.82 117.51 95.46 116.63
  A 0.16 0.16 0.0 0 1 95.75 116.72
  Q 95.75 116.89 95.75 117.06
  A 0.21 0.20 -15.5 0 0 96.06 117.23
  L 96.37 117.04
  Q 96.95 116.70 97.44 117.15
  C 115.41 133.35 136.07 142.76 158.83 150.28
  Z"
/>
<path fill="#ef3853" d="
  M 195.96 171.85
  C 203.65 187.38 197.87 205.95 189.87 220.74
  Q 189.08 220.84 188.66 222.08
  Q 188.51 222.51 188.07 222.39
  L 186.28 221.93
  Q 184.06 221.36 185.19 219.37
  C 200.82 191.93 196.49 169.22 168.09 153.54
  A 1.29 1.29 0.0 0 0 166.18 154.74
  Q 167.28 174.33 166.84 193.93
  A 0.92 0.81 -68.5 0 1 165.41 194.66
  Q 165.38 194.64 165.21 194.26
  Q 165.12 194.07 165.11 193.85
  Q 164.51 174.15 163.95 154.34
  A 0.50 0.49 19.3 0 0 163.76 153.95
  Q 163.11 153.43 162.58 154.33
  Q 140.20 191.89 117.72 229.40
  Q 117.43 229.89 117.73 230.37
  Q 118.89 232.18 118.14 234.16
  Q 117.96 234.64 118.37 234.94
  L 151.41 259.32
  A 0.73 0.73 0.0 0 1 150.56 260.50
  L 116.93 237.15
  A 0.91 0.90 -43.6 0 0 115.93 237.13
  Q 111.80 239.69 108.71 236.04
  Q 108.32 235.58 107.75 235.77
  Q 86.64 242.81 65.70 250.07
  Q 64.19 250.59 63.97 249.12
  Q 64.08 248.61 64.51 248.21
  L 105.62 234.21
  A 3.92 3.91 57.8 0 0 107.09 227.71
  L 89.18 210.16
  Q 88.82 209.80 88.33 209.66
  Q 87.96 209.56 87.67 209.23
  L 88.68 206.70
  Q 89.25 206.73 89.39 206.87
  Q 99.99 217.03 110.36 227.48
  Q 110.72 227.84 111.19 227.66
  Q 113.23 226.87 115.23 227.73
  Q 115.76 227.96 116.06 227.46
  Q 137.23 191.97 158.73 156.71
  Q 160.64 153.57 160.73 152.49
  Q 160.91 150.21 158.83 150.28
  Q 159.47 150.36 160.33 149.84
  Q 162.29 150.89 164.28 151.40
  Q 165.54 151.72 164.41 151.07
  Q 154.15 145.11 144.44 136.50
  Q 154.40 141.90 180.15 156.87
  Q 190.34 162.78 195.96 171.85
  Z"
/>
<path fill="#f46045" d="
  M 189.87 220.74
  C 178.35 244.21 162.93 265.56 152.15 289.41
  C 145.10 304.38 140.45 321.62 146.18 337.98
  C 147.20 349.47 154.59 361.73 162.94 369.24
  Q 163.13 369.40 163.03 369.63
  Q 162.96 369.79 163.01 370.01
  Q 147.00 372.26 136.26 374.49
  C 119.83 377.91 95.86 378.38 91.62 356.93
  C 89.88 348.14 92.50 340.99 94.44 332.58
  C 97.16 320.74 81.46 320.54 83.20 313.35
  Q 84.33 308.70 86.92 304.88
  A 0.74 0.74 0.0 0 0 86.68 303.83
  C 83.24 301.80 76.95 297.39 76.95 292.79
  C 76.94 288.42 81.88 285.48 82.06 280.52
  C 82.78 261.00 46.80 276.70 63.97 249.12
  Q 64.19 250.59 65.70 250.07
  Q 86.64 242.81 107.75 235.77
  Q 108.32 235.58 108.71 236.04
  Q 111.80 239.69 115.93 237.13
  A 0.91 0.90 -43.6 0 1 116.93 237.15
  L 150.56 260.50
  A 0.73 0.73 0.0 0 0 151.41 259.32
  L 118.37 234.94
  Q 117.96 234.64 118.14 234.16
  Q 118.89 232.18 117.73 230.37
  Q 117.43 229.89 117.72 229.40
  Q 140.20 191.89 162.58 154.33
  Q 163.11 153.43 163.76 153.95
  A 0.50 0.49 19.3 0 1 163.95 154.34
  Q 164.51 174.15 165.11 193.85
  Q 165.12 194.07 165.21 194.26
  Q 165.38 194.64 165.41 194.66
  A 0.92 0.81 -68.5 0 0 166.84 193.93
  Q 167.28 174.33 166.18 154.74
  A 1.29 1.29 0.0 0 1 168.09 153.54
  C 196.49 169.22 200.82 191.93 185.19 219.37
  Q 184.06 221.36 186.28 221.93
  L 188.07 222.39
  Q 188.51 222.51 188.66 222.08
  Q 189.08 220.84 189.87 220.74
  Z"
/>
<path fill="#f56c41" d="
  M 197.73 170.43
  Q 210.93 187.81 207.35 208.69
  C 204.02 225.79 195.33 240.87 185.98 255.20
  Q 174.43 272.93 163.78 290.90
  L 153.66 290.01
  Q 153.23 289.97 153.25 289.55
  Q 153.25 289.40 153.26 289.26
  Q 153.31 288.66 152.91 289.11
  Q 152.48 289.59 152.15 289.41
  C 162.93 265.56 178.35 244.21 189.87 220.74
  C 197.87 205.95 203.65 187.38 195.96 171.85
  Q 196.25 171.58 196.27 171.01
  Q 196.29 170.55 196.76 170.51
  L 197.73 170.43
  Z"
/>
<path fill="#f98a36" d="
  M 229.39 188.75
  Q 229.86 189.68 229.80 191.01
  Q 229.77 191.58 230.06 191.09
  L 230.27 190.75
  Q 230.34 190.63 230.46 190.55
  Q 231.69 189.79 233.04 190.26
  Q 233.38 190.37 233.74 190.33
  L 234.75 190.22
  Q 235.13 190.18 235.22 190.55
  L 235.41 191.28
  C 232.32 206.39 224.06 219.68 216.03 232.63
  C 201.83 255.53 188.98 282.66 195.99 310.20
  C 207.22 348.87 249.72 370.43 278.54 394.66
  Q 278.90 394.96 279.36 394.92
  Q 283.51 394.58 284.77 391.99
  L 291.93 397.51
  Q 293.54 399.46 296.00 400.72
  C 304.80 408.13 334.88 428.91 304.67 435.85
  Q 295.26 438.01 285.83 439.22
  A 1.08 1.07 -16.8 0 0 285.00 440.76
  L 288.01 446.77
  Q 288.25 447.25 288.79 447.24
  Q 299.42 447.01 301.18 457.28
  Q 301.27 457.78 301.77 457.85
  L 355.21 465.80
  Q 353.14 466.10 355.70 468.80
  Q 356.25 469.37 355.46 469.36
  L 351.49 469.27
  Q 350.96 469.26 351.37 469.59
  Q 352.24 470.31 351.49 470.51
  L 300.82 462.85
  Q 300.32 462.78 300.01 463.18
  Q 292.19 473.19 282.20 464.86
  A 0.79 0.78 55.0 0 0 281.45 464.72
  L 216.56 485.54
  Q 215.91 483.93 216.31 482.74
  Q 216.45 482.30 215.99 482.26
  L 215.31 482.21
  A 0.02 0.02 0.0 0 1 215.30 482.18
  L 215.50 481.76
  A 0.16 0.15 18.2 0 0 215.38 481.54
  L 214.47 481.38
  L 279.63 459.87
  Q 280.11 459.71 280.05 459.21
  Q 279.37 453.87 283.26 450.36
  A 0.85 0.84 55.8 0 0 283.45 449.35
  L 279.40 441.32
  Q 279.16 440.83 278.63 440.96
  Q 249.63 447.92 224.50 462.72
  L 219.32 460.59
  A 0.68 0.68 0.0 0 1 219.20 459.39
  L 227.09 454.13
  Q 227.50 453.85 227.59 453.37
  L 228.01 451.10
  A 1.31 1.31 0.0 0 1 228.52 450.30
  Q 243.49 439.41 258.34 428.38
  Q 266.99 421.94 272.22 413.98
  C 279.25 403.27 266.43 393.99 258.46 390.01
  C 230.88 376.24 210.73 366.39 189.54 349.98
  C 177.60 340.73 165.74 326.51 167.47 310.48
  C 169.27 293.72 181.01 275.38 190.16 261.67
  Q 207.18 236.18 218.47 218.21
  Q 220.76 214.56 224.10 207.18
  Q 228.31 198.50 229.39 188.75
  Z"
/>
<path fill="#f46045" d="
  M 347.98 194.99
  L 347.46 195.00
  Q 346.95 195.02 346.64 195.42
  L 311.42 240.22
  A 0.95 0.95 0.0 0 0 311.35 241.29
  Q 315.06 247.60 310.84 253.67
  A 0.88 0.87 -51.7 0 0 310.97 254.81
  L 345.31 286.43
  Q 345.63 286.73 346.01 286.52
  Q 351.45 283.52 356.97 286.52
  Q 357.46 286.79 357.87 286.42
  L 387.52 260.17
  L 389.71 262.66
  Q 390.06 263.06 389.80 263.53
  Q 389.19 264.62 389.74 264.99
  L 361.39 290.27
  Q 361.04 290.57 361.16 291.02
  Q 364.38 303.11 352.47 306.23
  Q 351.97 306.36 351.87 306.87
  L 345.66 337.48
  Q 345.55 337.98 345.95 338.31
  Q 356.47 346.91 346.87 356.77
  A 0.76 0.76 0.0 0 0 346.69 357.52
  L 379.77 460.99
  A 0.97 0.96 -5.9 0 0 380.60 461.66
  C 387.83 462.24 393.11 469.88 389.82 476.57
  C 385.11 486.13 371.26 484.55 369.63 473.80
  Q 369.56 473.30 369.06 473.22
  L 351.49 470.51
  Q 352.24 470.31 351.37 469.59
  Q 350.96 469.26 351.49 469.27
  L 355.46 469.36
  Q 356.25 469.37 355.70 468.80
  Q 353.14 466.10 355.21 465.80
  L 369.76 467.96
  Q 370.33 468.04 370.59 467.53
  Q 371.91 464.89 374.45 463.39
  A 0.72 0.71 -24.1 0 0 374.77 462.56
  L 341.85 359.33
  Q 341.71 358.91 341.29 358.81
  L 336.01 357.52
  A 0.52 0.50 28.1 0 0 335.52 357.66
  L 296.00 400.72
  Q 293.54 399.46 291.93 397.51
  L 331.69 354.13
  Q 332.10 353.69 331.81 353.17
  Q 329.87 349.59 330.70 345.52
  Q 330.80 345.00 330.34 344.73
  Q 299.33 326.49 268.26 308.32
  C 267.03 307.60 265.68 306.15 264.25 307.32
  C 262.46 308.77 261.73 309.18 260.02 310.00
  Q 259.54 310.24 259.54 310.77
  L 259.59 371.30
  L 254.21 366.43
  L 254.24 310.90
  Q 254.24 310.44 253.85 310.20
  L 248.76 307.10
  A 0.75 0.73 -42.8 0 0 248.04 307.08
  L 218.78 321.90
  L 216.68 316.86
  L 245.92 302.51
  A 0.71 0.70 74.8 0 0 246.32 301.80
  C 245.50 292.73 254.08 286.06 262.31 290.80
  Q 262.77 291.06 263.11 290.66
  L 293.83 253.58
  A 0.75 0.74 48.5 0 0 293.88 252.72
  Q 291.06 248.38 292.71 243.50
  Q 292.88 242.99 292.45 242.68
  L 275.47 230.23
  Q 276.50 227.78 278.78 226.38
  L 295.43 238.72
  Q 295.85 239.03 296.28 238.73
  Q 300.91 235.53 306.42 237.19
  A 0.76 0.74 -62.3 0 0 307.23 236.93
  L 342.73 191.97
  Q 343.06 191.55 342.81 191.07
  Q 342.74 190.92 342.62 190.77
  L 342.77 189.92
  A 0.20 0.20 0.0 0 1 343.07 189.78
  L 343.36 189.95
  Q 343.78 190.20 343.75 189.71
  Q 343.75 189.56 343.75 189.42
  A 0.23 0.22 -76.5 0 1 344.07 189.22
  L 350.74 192.48
  Q 351.63 192.92 350.67 193.16
  L 347.49 193.97
  A 0.27 0.27 0.0 0 0 347.56 194.50
  L 348.00 194.50
  Q 348.29 194.50 348.13 194.75
  L 347.98 194.99
  Z
  M 268.26 302.52
  Q 300.23 321.20 332.28 339.89
  Q 332.88 340.24 333.39 340.17
  Q 334.02 340.09 334.51 339.70
  C 336.22 338.32 337.70 337.71 339.88 337.21
  Q 340.45 337.08 340.56 336.50
  L 346.79 305.71
  A 0.78 0.77 -67.4 0 0 346.46 304.90
  Q 338.77 299.92 341.93 291.01
  Q 342.13 290.47 341.70 290.08
  L 306.46 257.75
  Q 305.99 257.32 305.36 257.46
  Q 301.92 258.20 298.64 256.92
  Q 298.08 256.70 297.69 257.16
  L 266.93 294.28
  Q 266.60 294.67 266.68 295.18
  L 267.78 301.81
  Q 267.85 302.28 268.26 302.52
  Z"
/>
<path fill="#832b28" d="
  M 251.85 206.31
  L 278.78 226.38
  Q 276.50 227.78 275.47 230.23
  L 248.73 210.67
  L 251.85 206.31
  Z"
/>
<path fill="#fdb128" d="
  M 224.10 207.18
  Q 220.76 214.56 218.47 218.21
  Q 207.18 236.18 190.16 261.67
  C 181.01 275.38 169.27 293.72 167.47 310.48
  C 165.74 326.51 177.60 340.73 189.54 349.98
  C 210.73 366.39 230.88 376.24 258.46 390.01
  C 266.43 393.99 279.25 403.27 272.22 413.98
  Q 266.99 421.94 258.34 428.38
  Q 243.49 439.41 228.52 450.30
  A 1.31 1.31 0.0 0 0 228.01 451.10
  L 227.59 453.37
  Q 227.50 453.85 227.09 454.13
  L 219.20 459.39
  A 0.68 0.68 0.0 0 0 219.32 460.59
  L 224.50 462.72
  Q 204.31 474.75 187.36 489.89
  A 0.24 0.24 0.0 0 0 187.60 490.30
  L 214.47 481.38
  L 215.38 481.54
  A 0.16 0.15 18.2 0 1 215.50 481.76
  L 215.30 482.18
  A 0.02 0.02 0.0 0 0 215.31 482.21
  L 215.99 482.26
  Q 216.45 482.30 216.31 482.74
  Q 215.91 483.93 216.56 485.54
  L 172.28 500.00
  L 171.08 500.00
  Q 182.55 485.61 191.50 470.79
  Q 195.83 469.36 199.07 466.08
  C 212.81 452.17 227.87 441.04 238.34 422.50
  Q 238.60 422.03 239.14 422.10
  C 241.87 422.44 244.68 422.74 247.29 423.60
  Q 249.01 424.18 250.73 422.50
  C 255.00 418.30 264.79 409.27 258.76 403.67
  C 247.55 393.28 226.41 387.37 213.76 383.59
  Q 208.39 372.61 195.50 370.00
  Q 194.60 369.82 192.69 370.57
  C 187.73 371.99 173.33 364.84 169.21 362.33
  Q 169.95 361.15 168.12 360.33
  Q 167.67 360.13 167.65 359.65
  C 167.57 357.53 165.98 356.69 165.16 355.38
  C 163.93 353.40 162.18 351.51 161.12 349.71
  C 148.99 329.17 153.70 311.16 163.78 290.90
  Q 174.43 272.93 185.98 255.20
  C 195.33 240.87 204.02 225.79 207.35 208.69
  L 222.22 208.65
  Q 222.74 208.65 222.99 208.19
  Q 223.55 207.18 224.10 207.18
  Z"
/>
<path fill="#f46045" d="
  M 87.67 209.23
  Q 87.96 209.56 88.33 209.66
  Q 88.82 209.80 89.18 210.16
  L 107.09 227.71
  A 3.92 3.91 57.8 0 1 105.62 234.21
  L 64.51 248.21
  C 72.66 235.35 80.78 224.00 87.67 209.23
  Z"
/>
<path fill="#f98a36" d="
  M 163.78 290.90
  C 153.70 311.16 148.99 329.17 161.12 349.71
  C 162.18 351.51 163.93 353.40 165.16 355.38
  C 165.98 356.69 167.57 357.53 167.65 359.65
  Q 167.67 360.13 168.12 360.33
  Q 169.95 361.15 169.21 362.33
  Q 153.91 353.79 146.18 337.98
  C 140.45 321.62 145.10 304.38 152.15 289.41
  Q 152.48 289.59 152.91 289.11
  Q 153.31 288.66 153.26 289.26
  Q 153.25 289.40 153.25 289.55
  Q 153.23 289.97 153.66 290.01
  L 163.78 290.90
  Z"
/>
<path fill="#ef3853" d="
  M 214.44 310.44
  L 216.68 316.86
  L 218.78 321.90
  C 227.31 339.24 239.79 353.53 254.21 366.43
  L 259.59 371.30
  L 284.77 391.99
  Q 283.51 394.58 279.36 394.92
  Q 278.90 394.96 278.54 394.66
  C 249.72 370.43 207.22 348.87 195.99 310.20
  C 200.28 310.00 210.05 310.77 212.33 309.60
  Q 212.82 309.34 212.77 309.89
  Q 212.75 310.08 212.75 310.25
  Q 212.75 310.61 213.11 310.67
  Q 213.70 310.76 214.44 310.44
  Z"
/>
<path fill="#040548" d="
  M 146.18 337.98
  Q 153.91 353.79 169.21 362.33
  C 173.33 364.84 187.73 371.99 192.69 370.57
  C 193.79 371.31 195.88 370.98 196.44 371.88
  Q 196.77 372.42 196.14 372.50
  Q 191.10 373.15 186.45 375.01
  C 182.45 376.61 179.28 376.99 175.33 377.70
  A 1.60 1.54 53.6 0 1 174.28 377.52
  Q 168.69 374.43 163.88 370.21
  Q 163.64 370.01 163.33 370.00
  Q 163.17 369.99 163.01 370.01
  Q 162.96 369.79 163.03 369.63
  Q 163.13 369.40 162.94 369.24
  C 154.59 361.73 147.20 349.47 146.18 337.98
  Z"
/>
<path fill="#f98a36" d="
  M 191.50 470.79
  C 203.49 449.31 222.91 407.98 213.76 383.59
  C 226.41 387.37 247.55 393.28 258.76 403.67
  C 264.79 409.27 255.00 418.30 250.73 422.50
  Q 249.01 424.18 247.29 423.60
  C 244.68 422.74 241.87 422.44 239.14 422.10
  Q 238.60 422.03 238.34 422.50
  C 227.87 441.04 212.81 452.17 199.07 466.08
  Q 195.83 469.36 191.50 470.79
  Z"
/>
</svg>
